{"title":"Doctor Thorne S01E02 x264 RB58.mp4","uid":13862491,"size":529394823,"categoryP":"video","categoryS":"tv_shows","magnet":"?xt=urn:btih:91f9eb83b38f7390b6bdd24015c7dd42b791ebe8&amp;dn=Doctor+Thorne+S01E02+x264+RB58.mp4&amp;tr=udp%3A%2F%2Ftracker.leechers-paradise.org%3A6969&amp;tr=udp%3A%2F%2Fzer0day.ch%3A1337&amp;tr=udp%3A%2F%2Fopen.demonii.com%3A1337&amp;tr=udp%3A%2F%2Ftracker.coppersurfer.tk%3A6969&amp;tr=udp%3A%2F%2Fexodus.desync.com%3A6969","seeders":1,"leechers":0,"uploader":"RedBaron58","files":1,"time":1458043120,"description":"Doctor Thorne S01E02 x264 mp4\r\n \nhttp://www.imdb.com/title/tt4938084/\r\n\r\nTrailer:\r\n\r\n\r\nPlease be patient My intial upload speed is limited.\r\nThank you for your kind comments and feedback on my other torrents, your feedback is welcome.\r\n\r\n\r\nAbout the Episode:\r\nSir Roger falls seriously ill. Dr Thorne does his best to ease the old man's pain, \r\nbut feels certain that he will die soon. The railway entrepreneur's son Louis comes to see \r\nhim in his last days, and to the doctor's horror, takes an immediate liking to Mary. \r\nMeanwhile, Miss Dunstable urges Frank to follow his heart despite increasing pressure \r\nfrom Lady Arabella to put his family's future ahead of his feelings in matters of marriage.\r\n \r\nStaring Tom Hollander, Alison Brie, Ian McShane and Rebecca Front.\r\n\r\n\r\nI hope you enjoy.\r\n\r\n\r\nTechnical:\r\n\r\nGeneral\r\nComplete name                            : G:Doctor Thorne S01E02 x264 RB58.mp4\r\nFormat                                   : MPEG-4\r\nFormat profile                           : Base Media\r\nCodec ID                                 : isom\r\nFile size                                : 505 MiB\r\nDuration                                 : 46mn 24s\r\nOverall bit rate                         : 1 521 Kbps\r\nWriting application                      : Lavf54.63.104\r\n\r\nVideo\r\nID                                       : 1\r\nFormat                                   : AVC\r\nFormat/Info                              : Advanced Video Codec\r\nFormat profile                           :   \r\nFormat settings, CABAC                   : Yes\r\nFormat settings, ReFrames                : 4 frames\r\nCodec ID                                 : avc1\r\nCodec ID/Info                            : Advanced Video Coding\r\nDuration                                 : 46mn 24s\r\nBit rate                                 : 1 400 Kbps\r\nWidth                                    : 832 pixels\r\nHeight                                   : 468 pixels\r\nDisplay aspect ratio                     : 16:9\r\nFrame rate mode                          : Constant\r\nFrame rate                               : 25.000 fps\r\nColor space                              : YUV\r\nChroma subsampling                       : 4:2:0\r\nBit depth                                : 8 bits\r\nScan type                                : Progressive\r\nBits/(Pixel*Frame)                       : 0.144\r\nStream size                              : 465 MiB (92%)\r\nWriting library                          : x264 core 123 r2189 35cf912\r\nEncoding settings                        : cabac=1 / ref=3 / deblock=1:0:0\r\n\r\nAudio\r\nID                                       : 2\r\nFormat                                   : AAC\r\nFormat/Info                              : Advanced Audio Codec\r\nFormat profile                           : LC\r\nCodec ID                                 : 40\r\nDuration                                 : 46mn 24s\r\nBit rate mode                            : Constant\r\nBit rate                                 : 112 Kbps\r\nChannel(s)                               : 2 channels\r\nChannel positions                        : Front: L R\r\nSampling rate                            : 48.0 KHz\r\nCompression mode                         : Lossy\r\nStream size                              : 37.3 MiB (7%)","torrent":{"xt":"urn:btih:91f9eb83b38f7390b6bdd24015c7dd42b791ebe8","amp;dn":"Doctor+Thorne+S01E02+x264+RB58.mp4","amp;tr":["udp%3A%2F%2Ftracker.leechers-paradise.org%3A6969","udp%3A%2F%2Fzer0day.ch%3A1337","udp%3A%2F%2Fopen.demonii.com%3A1337","udp%3A%2F%2Ftracker.coppersurfer.tk%3A6969","udp%3A%2F%2Fexodus.desync.com%3A6969"],"infoHash":"91f9eb83b38f7390b6bdd24015c7dd42b791ebe8","infoHashBuffer":{"type":"Buffer","data":[145,249,235,131,179,143,115,144,182,189,210,64,21,199,221,66,183,145,235,232]},"announce":[],"urlList":[]}}